<?xml version="1.0" encoding="UTF-8" standalone="no"?>
<!-- Generator: Adobe Illustrator 17.0.1, SVG Export Plug-In . SVG Version: 6.00 Build 0)  -->

<svg
   xmlns:dc="http://purl.org/dc/elements/1.1/"
   xmlns:cc="http://creativecommons.org/ns#"
   xmlns:rdf="http://www.w3.org/1999/02/22-rdf-syntax-ns#"
   xmlns:svg="http://www.w3.org/2000/svg"
   xmlns="http://www.w3.org/2000/svg"
   xmlns:sodipodi="http://sodipodi.sourceforge.net/DTD/sodipodi-0.dtd"
   xmlns:inkscape="http://www.inkscape.org/namespaces/inkscape"
   version="1.1"
   x="0px"
   y="0px"
   width="86px"
   height="86px"
   viewBox="0 0 86 86"
   enable-background="new 0 0 86 86"
   xml:space="preserve"
   id="svg2"
   inkscape:version="0.92.5 (2060ec1f9f, 2020-04-08)"
   sodipodi:docname="logov1.svg"
   inkscape:export-filename="/home/bsi/git/daily-comics/.logo/logo.86x86.png"
   inkscape:export-xdpi="96"
   inkscape:export-ydpi="96"><metadata
     id="metadata35"><rdf:RDF><cc:Work
         rdf:about=""><dc:format>image/svg+xml</dc:format><dc:type
           rdf:resource="http://purl.org/dc/dcmitype/StillImage" /><dc:title></dc:title></cc:Work></rdf:RDF></metadata><defs
     id="defs33" /><sodipodi:namedview
     pagecolor="#ffffff"
     bordercolor="#666666"
     borderopacity="1"
     objecttolerance="10"
     gridtolerance="10"
     guidetolerance="10"
     inkscape:pageopacity="0"
     inkscape:pageshadow="2"
     inkscape:window-width="1848"
     inkscape:window-height="992"
     id="namedview31"
     showgrid="true"
     inkscape:zoom="9.0948436"
     inkscape:cx="43.446737"
     inkscape:cy="42.916011"
     inkscape:window-x="72"
     inkscape:window-y="27"
     inkscape:window-maximized="1"
     inkscape:current-layer="svg2"
     inkscape:snap-bbox="true"
     inkscape:snap-grids="true"
     inkscape:snap-global="true"><inkscape:grid
       type="xygrid"
       id="grid4136"
       empspacing="10"
       visible="true"
       enabled="true"
       snapvisiblegridlinesonly="true"
       empcolor="#ff0000"
       empopacity="0.25098039" /></sodipodi:namedview><g
     id="g4284"
     style="display:inline"
     inkscape:label="daily-comics-logo"><path
       id="rect3858-1"
       d="M 43,0.3125 V 43 H 85.6875 V 1.71875 c 0,-0.7859999 -0.62025,-1.40625 -1.40625,-1.40625 z"
       style="color:#000000;display:inline;overflow:visible;visibility:visible;fill:#ecc539;fill-opacity:1;stroke:none;stroke-width:1.01042736;marker:none;enable-background:accumulate"
       inkscape:connector-curvature="0"
       inkscape:label="rect-beige-ne" /><path
       id="rect3858-2"
       d="m 43,43 v 42.6875 h 41.28125 c 0.786,0 1.40625,-0.62025 1.40625,-1.40625 V 43 Z"
       style="color:#000000;display:inline;overflow:visible;visibility:visible;fill:#458ec5;fill-opacity:1;stroke:none;stroke-width:1.01042736;marker:none;enable-background:accumulate"
       inkscape:connector-curvature="0"
       inkscape:label="rect-blue-se" /><path
       id="rect3858-3"
       d="M 0.3125,43 C 0.3125,66.583 19.418,85.6875 43,85.6875 V 43 Z"
       style="color:#000000;display:inline;overflow:visible;visibility:visible;fill:#26cbab;fill-opacity:1;stroke:none;stroke-width:1.01042736;marker:none;enable-background:accumulate"
       inkscape:connector-curvature="0"
       inkscape:label="rect-green-sw" /><path
       id="rect3858-4"
       d="M 43,0.3125 C 19.418,0.3115 0.3125,19.417 0.3125,43 H 43 Z"
       style="color:#000000;display:inline;overflow:visible;visibility:visible;fill:#ff8d75;fill-opacity:1;stroke:none;stroke-width:1.01042736;marker:none;enable-background:accumulate"
       inkscape:connector-curvature="0"
       inkscape:label="rect-red-nw" /><path
       sodipodi:nodetypes="sssssscsccssccccssscscsssssssssssssss"
       inkscape:connector-curvature="0"
       d="m 44.356299,64.740157 c 0.428506,0.813864 2.733005,0.512989 2.876436,1.224596 0.284758,1.412773 0.01707,-0.490573 -1.407779,3.00771 -1.410894,3.464038 -8.244902,7.585927 -6.848578,9.940923 L 43,85.6995 c 0.151104,0.254847 8.767331,0.139572 20.639149,0.05733 4.476815,-0.03101 0.137852,-9.307329 0.137852,-9.307329 0.786,0 -0.686212,-2.297706 -0.452,-3.048 l -5.042786,-6.422523 8.11127,-3.092902 c 2.385652,-1.604894 3.811812,-3.895139 4.548569,-6.677816 0.659552,-2.491078 -0.03834,-13.341919 -0.138572,-13.689745 l -2.836621,-9.84333 3.407851,-1.895628 -5.044389,-1.198518 6.598647,-3.453234 -7.558289,0.670258 c -1.39498,0.123704 4.756575,-4.567834 4.567563,-5.354821 -0.1927,-0.802344 -4.785573,0.973858 -8.78154,2.173032 C 57.038552,25.852114 64.005157,13.2052 63.505738,13.2052 L 50.58886,21.188922 c -0.691055,0.42713 0.982167,-9.848967 0.366091,-10.635373 -1.642579,-7e-5 -5.04656,8.024969 -9.829801,13.072186 -0.671471,0.708528 -4.192335,-6.931933 -4.893431,-6.301863 -2.009224,1.805675 -0.819448,8.220841 -2.146921,11.031291 -0.438125,0.927573 -0.89595,2.689719 -2.352346,2.309762 -1.402879,-0.365995 -3.802432,-3.573325 -4.39103,-3.168438 -1.63405,1.124039 0.247285,6.275126 -0.206423,6.809482 -0.366037,0.431102 0.217004,2.73586 -0.247177,2.54175 l -3.802106,-1.589958 c -0.967473,-0.404577 0.728935,3.3664 0.685225,6.103213 -0.01569,0.982173 -2.75235,0.483337 -2.858188,1.51996 -0.152054,1.489275 3.358701,1.928978 3.846502,3.917074 0.609722,2.485002 -1.714082,6.593855 -1.235879,9.048082 0.407615,2.091956 6.741388,5.00107 8.366388,5.35076 3.538192,0.761397 3.371361,-5.130216 4.793307,-2.168307 2.345109,4.884858 5.572281,1.721272 7.673228,5.711614 z"
       id="path3051"
       style="display:inline;fill:#f9f9f9;fill-opacity:1"
       inkscape:label="calvin-white-fill" /><path
       id="path3935"
       d="m 50.875,8.09375 c -1.119781,0 -1.319407,0.154115 -2.59375,1.8125 -1.6485,2.145307 -4.927618,7.763308 -6.4375,11.03125 -0.58918,1.275204 -1.263426,2.3125 -1.5,2.3125 -0.488597,0 -0.481092,-0.0089 -1.96875,-4.28125 -1.169663,-3.359115 -1.870715,-4.387922 -2.71875,-4.0625 -0.704219,0.270234 -0.79062,0.607429 -1.1875,5.3125 -0.189686,2.248733 -0.574696,5.158605 -0.84375,6.46875 -0.269054,1.310142 -0.536816,2.77259 -0.625,3.25 -0.188609,1.021103 0.483801,1.223706 1.21875,0.34375 0.851205,-1.019142 1.224266,-2.362784 1.6875,-5.875 0.253241,-1.920039 0.608653,-3.639903 0.78125,-3.8125 0.486936,-0.486936 1.116623,0.609827 2.09375,3.59375 0.86949,2.655229 1.604486,3.78125 2.4375,3.78125 0.659653,0 1.072942,-0.65451 1.4375,-2.28125 0.769071,-3.431748 4.485809,-10.96875 5.40625,-10.96875 0.173253,0 0.31148,1.703808 0.3125,4.03125 9.66e-4,2.213447 0.131706,4.567736 0.3125,5.21875 0.280455,1.009869 0.46014,1.15625 1.21875,1.15625 0.680802,0 1.112686,-0.285258 1.78125,-1.25 0.999503,-1.44228 5.676552,-6 6.15625,-6 0.491977,0 0.357548,0.726652 -0.5,3.28125 -1.220838,3.636818 -0.995254,5.180977 0.6875,4.84375 2.392619,-0.479485 12.19269,-3.348921 12.5,-3.65625 0.192132,-0.192125 0.273921,-0.444831 0.15625,-0.5625 -0.320631,-0.320636 -4.393224,0.479854 -7.625,1.5 -3.151822,0.994917 -3.829433,1.0913 -4.15625,0.5625 -0.35905,-0.580954 4.278549,-9.397766 5.34375,-10.15625 0.868682,-0.618559 0.887319,-0.66502 0.34375,-1.0625 -0.965047,-0.705649 -2.98675,-0.526545 -3.90625,0.34375 -2.173746,2.057377 -9.945895,7.710355 -10.21875,7.4375 -0.466726,-0.466725 0.299717,-6.21574 1.21875,-9.125 0.44517,-1.4092139 0.73051,-2.704278 0.625,-2.875 C 52.206987,8.235531 51.549021,8.09375 50.875,8.09375 Z M 26.46875,25.9375 c -0.05423,0.02559 -0.08619,0.167784 -0.125,0.40625 -0.149005,0.915555 1.739751,10.179247 2.1875,10.71875 0.718508,0.86575 0.989697,0.370847 0.78125,-1.4375 C 29.067836,33.502445 27.774162,28.605382 27,26.84375 26.704353,26.170994 26.559136,25.894843 26.46875,25.9375 Z m 45.25,0.625 c -0.779126,-0.0023 -1.735189,0.01522 -2.875,0.03125 -3.317062,0.04665 -6.122731,0.153994 -6.21875,0.25 -0.09602,0.096 0.312778,0.642373 0.90625,1.21875 0.781943,0.759396 1.474632,2.071633 2.46875,4.6875 0.754513,1.985417 1.622583,4.218783 1.9375,5 0.886483,2.19936 2.411288,9.552767 2.84375,13.75 0.3075,2.984506 0.303144,4.069707 0,5.1875 -0.529902,1.953882 -1.375298,3.490778 -2.4375,4.46875 -2.386514,2.197318 -11.617654,5.96875 -14.625,5.96875 -1.676652,0 -4.725897,-1.051631 -7.09375,-2.4375 -1.8007,-1.05392 -8.557617,-5.690495 -10.25,-7.03125 -0.744141,-0.589529 -0.876903,-0.612695 -2.1875,-0.15625 -0.764384,0.266214 -1.725397,0.786091 -2.15625,1.125 -1.066425,0.83885 -3.019375,0.766019 -5,-0.15625 -2.24689,-1.046246 -2.96875,-2.062764 -2.96875,-4.1875 0,-2.297809 0.720481,-3.026248 3.5625,-3.5625 2.055316,-0.387809 3.011656,-0.945617 2.09375,-1.21875 -0.247741,-0.07372 -1.33752,-1.05971 -2.40625,-2.1875 l -1.9375,-2.03125 -0.90625,0.5 c -0.493704,0.274395 -1.443249,0.69891 -2.125,0.96875 -1.715543,0.679018 -1.130624,1.318899 0.75,0.8125 2.387574,-0.642908 3.193848,0.469706 0.96875,1.34375 -1.437473,0.564654 -2.21875,1.921845 -2.21875,3.90625 0,3.782064 4.62717,7.684821 9.71875,8.21875 1.335018,0.139997 1.797826,0.05953 2.3125,-0.40625 0.564566,-0.510925 0.779783,-0.513859 2,-0.1875 0.76159,0.203694 2.587154,1.124252 4.03125,2.0625 1.444095,0.938253 4.392454,2.595498 6.5625,3.6875 l 3.9375,2 3.71875,0.125 c 3.848614,0.147595 4.148145,0.283203 3.28125,1.46875 -0.375369,0.51335 -0.78876,0.572569 -3.59375,0.4375 -2.855772,-0.137516 -3.369385,-0.275551 -5.53125,-1.34375 -1.315939,-0.650219 -2.653356,-1.123028 -2.96875,-1.0625 -0.31539,0.06053 -0.940991,0.764259 -1.375,1.5625 -1.126903,2.072617 -1.533548,2.46875 -2.5,2.46875 -1.093397,0 -1.331356,0.264073 -0.9375,1 0.248995,0.465253 0.03676,1.020352 -0.96875,2.6875 C 38.830905,76.692436 38.25,77.925445 38.25,78.25 c 0,0.324549 0.406215,0.969874 0.90625,1.4375 0.719881,0.67322 0.943194,1.207439 1.0625,2.53125 0.149473,1.65851 0.864879,2.763844 2.21875,3.46875 0.188876,0.0025 0.37304,0 0.5625,0 h 3.375 C 45.818158,85.637906 45.21153,85.527158 44.71875,85.3125 42.681163,84.424924 42.171507,83.224709 43.3125,82 c 0.685286,-0.735567 2.136194,-0.904195 3.125,-0.375 0.617057,0.330238 1.74416,3.316323 1.4375,3.8125 -0.09984,0.161549 -0.434928,0.226662 -0.84375,0.25 h 3.75 C 50.634859,85.503755 50.5625,85.276941 50.5625,85 c 0,-0.421026 0.198993,-0.845978 0.4375,-0.9375 0.721891,-0.277014 10.276632,-0.912379 10.78125,-0.71875 0.570872,0.219066 0.609036,1.56883 0.0625,2 -0.135628,0.107008 -0.797943,0.23326 -1.625,0.34375 h 4.9375 c 0.05598,-0.64521 0.235624,-1.123118 0.5625,-1.5 0.342031,-0.394389 0.708432,-0.984586 0.8125,-1.3125 0.200433,-0.631534 -0.973752,-3.470973 -2.0625,-5 -0.846176,-1.188326 -0.80059,-1.751535 0.15625,-2.1875 1.378887,-0.628255 1.027062,-1.347866 -2.4375,-5.03125 -1.194836,-1.270292 -2.12929,-2.487195 -2.0625,-2.6875 0.12692,-0.380782 1.708462,-1.302732 5.46875,-3.1875 2.621669,-1.314047 4.852195,-3.527584 5.96875,-5.9375 1.061035,-2.290186 1.242969,-3.846715 0.6875,-6.25 -0.260405,-1.126713 -0.641422,-3.829954 -0.84375,-6 -0.309393,-3.318189 -0.634057,-4.75559 -2.0625,-9.125 -1.263583,-3.865144 -1.598757,-5.257435 -1.3125,-5.4375 0.211671,-0.133123 1.575409,-0.172717 3.03125,-0.0625 2.173234,0.164526 2.619249,0.138977 2.5,-0.21875 -0.203149,-0.609492 -1.310214,-0.869699 -3.96875,-0.90625 -2.528712,-0.03477 -3.690302,-0.688102 -3.5,-2 0.127993,-0.882566 1.018805,-1.112019 4.53125,-1.15625 3.194434,-0.04023 4.25,-0.222596 4.25,-0.78125 0,-0.216835 -0.818872,-0.33682 -3.15625,-0.34375 z m -21.625,1.875 c -0.103952,-0.0081 -0.303626,0.04594 -0.59375,0.15625 -1.11934,0.425572 -3.34375,1.950321 -3.34375,2.28125 0,0.582286 0.998505,0.217939 2.4375,-0.875 1.294471,-0.983173 1.811856,-1.538279 1.5,-1.5625 z m -6.5,2.125 C 42.441795,30.752593 39.036265,33.451914 39.375,34 c 0.09561,0.154702 0.369637,0.28125 0.59375,0.28125 0.58108,0 2.78566,-1.653994 3.625,-2.71875 0.617616,-0.783492 0.66965,-0.908758 0.21875,-1 -0.05504,-0.01114 -0.141953,-0.01267 -0.21875,0 z M 58.3125,31.125 c -2.72885,0.118242 -5.619387,0.790125 -5.78125,1.65625 -0.126172,0.675144 0.03896,0.703844 1.21875,0.09375 0.891329,-0.460924 2.743362,-0.658752 7.40625,-0.78125 2.140881,-0.05624 2.167512,-0.07988 1.25,-0.5 C 61.52866,31.191904 59.94981,31.054055 58.3125,31.125 Z m -36.1875,3.5 c -0.17675,-0.01508 -0.299196,0.07678 -0.40625,0.25 -0.185989,0.300937 1.330561,2.503946 2.78125,4.0625 0.836082,0.898248 1.78125,1.369991 1.78125,0.875 0,-0.647378 -1.753241,-3.398458 -2.6875,-4.21875 C 22.861008,34.950394 22.419583,34.650126 22.125,34.625 Z m -1.28125,4.5 c -0.268337,0.0436 -0.119781,0.730446 0.46875,2.03125 0.888712,1.964282 0.750304,2.59375 -0.5625,2.59375 -0.748554,0 -1.566484,0.714766 -1.21875,1.0625 0.266539,0.266535 2.354666,-0.06655 4.53125,-0.71875 2.277254,-0.682367 2.317131,-1.367029 0.15625,-2.625 -0.868018,-0.505319 -1.961901,-1.301004 -2.4375,-1.75 -0.465266,-0.43924 -0.776498,-0.61991 -0.9375,-0.59375 z M 63.125,40.34375 C 62.423956,40.443237 62.415028,40.51299 62.5,43.75 l 0.09375,3.3125 -1.03125,0.65625 C 60.993837,48.069546 60.5,48.555683 60.5,48.8125 c 0,0.470576 0.141511,0.491815 2.40625,0.125 0.828563,-0.134199 1.231012,-0.05567 1.5625,0.34375 0.574818,0.692602 0.483937,2.835424 -0.15625,3.8125 -0.413713,0.631387 -0.752739,0.78125 -2.0625,0.78125 -1.662239,0 -2.15475,0.564355 -1.03125,1.21875 1.312981,0.764734 3.182492,0.290893 4.9375,-1.25 1.003997,-0.881525 1.15625,-1.169251 1.15625,-2.46875 0,-1.363402 -0.420276,-2.361809 -1.4375,-3.40625 C 65.677092,47.765558 65.397943,46.568257 65.28125,45.3125 65.164525,44.056742 64.808098,42.39212 64.46875,41.625 63.966752,40.490143 63.709034,40.260872 63.125,40.34375 Z m -7.1875,1.0625 c -0.755031,0 -0.584299,4.039701 0.25,5.90625 0.780841,1.746952 1.806545,2.080827 2.15625,0.6875 0.438831,-1.748446 -1.327395,-6.59375 -2.40625,-6.59375 z M 55.71875,60.875 c -0.226416,0.0034 -0.417852,0.01835 -0.59375,0.0625 -1.266749,0.317934 -0.861412,1.252381 0.65625,1.5 1.26429,0.206276 3.250321,0.09342 3.53125,-0.1875 0.529369,-0.529371 -2.008838,-1.39914 -3.59375,-1.375 z m -8.65625,9.40625 c 0.407217,0 0.65297,0.255578 0.71875,0.71875 0.100232,0.705755 0.130375,0.710434 4.71875,0.59375 4.367244,-0.111063 4.647717,-0.102284 5.28125,0.53125 0.790809,0.790805 0.890374,1.792785 0.1875,2.0625 -0.274604,0.105379 -2.439647,0.172505 -4.8125,0.15625 -3.820191,-0.02617 -4.534408,-0.115482 -6.28125,-0.8125 -1.085023,-0.432944 -1.96875,-0.967632 -1.96875,-1.1875 0,-0.646381 1.477926,-2.0625 2.15625,-2.0625 z M 61.875,73.5 c 0.194259,-0.02775 0.375,0.0963 0.375,0.375 0,0.274872 -0.225106,0.5 -0.5,0.5 -0.274862,0 -0.443716,-0.168842 -0.375,-0.375 0.09755,-0.292636 0.305741,-0.472247 0.5,-0.5 z M 43.75,74.09375 c 0.710587,-0.0184 1.541874,0.323964 2.5625,1 1.774817,1.175588 2.282905,1.208954 7.78125,0.5625 3.399808,-0.399731 3.757779,-0.413048 4.53125,0.09375 1.235973,0.809842 0.919116,1.567813 -0.78125,1.84375 -6.528235,1.0594 -7.850565,1.1357 -9.5625,0.5 -0.910129,-0.337965 -2.678873,-0.994241 -3.9375,-1.4375 -2.36405,-0.832557 -2.803332,-1.35666 -1.75,-2.15625 0.338907,-0.257268 0.729898,-0.395209 1.15625,-0.40625 z m -2.15625,3.125 c 2.004342,-0.02084 5.255711,1.451069 4.78125,2.6875 -0.224997,0.586329 -0.295122,0.555898 -2.28125,-0.1875 -0.868018,-0.324898 -2.001759,-0.586531 -2.53125,-0.59375 -1.244063,-0.01696 -1.79134,-0.534567 -1.375,-1.3125 0.21101,-0.394275 0.738136,-0.586805 1.40625,-0.59375 z m 18.34375,1.75 c 0.277134,-0.005 0.434092,0.0098 0.46875,0.03125 0.13863,0.08568 0.415034,0.705481 0.625,1.40625 0.465101,1.552372 0.165551,1.86504 -1.9375,1.875 -0.781217,0.0037 -2.548671,0.07198 -3.9375,0.15625 -2.654922,0.161093 -4.117878,-0.178352 -5.125,-1.1875 -1.063187,-1.065316 -0.03826,-1.463096 5.25,-1.96875 2.006444,-0.191852 3.824848,-0.297506 4.65625,-0.3125 z M 63.5,79.125 c 0.392367,0.0089 0.96875,1.080056 0.96875,1.9375 0,0.487631 -0.145873,0.90625 -0.3125,0.90625 -0.395754,0 -1.117158,-2.476602 -0.8125,-2.78125 0.04602,-0.04602 0.100198,-0.06377 0.15625,-0.0625 z"
       style="display:inline;fill:#1f1f1f"
       inkscape:connector-curvature="0"
       inkscape:label="calvin-black-outline" /></g></svg>